<mxfile host="app.diagrams.net" agent="Mozilla/5.0 (X11; CrOS x86_64 14541.0.0) AppleWebKit/537.36 (KHTML, like Gecko) Chrome/137.0.0.0 Safari/537.36" version="27.1.6">
  <diagram name="Page-1" id="u_5HuXUxDGT3kpWRaeYG">
    <mxGraphModel dx="665" dy="495" grid="1" gridSize="10" guides="1" tooltips="1" connect="1" arrows="1" fold="1" page="1" pageScale="1" pageWidth="850" pageHeight="1100" math="0" shadow="0">
      <root>
        <mxCell id="0" />
        <mxCell id="1" parent="0" />
        <mxCell id="gZOOGmfuJGryA1Dxe4T--4" value="" style="edgeStyle=orthogonalEdgeStyle;rounded=0;orthogonalLoop=1;jettySize=auto;html=1;" edge="1" parent="1" source="gZOOGmfuJGryA1Dxe4T--2" target="gZOOGmfuJGryA1Dxe4T--3">
          <mxGeometry relative="1" as="geometry" />
        </mxCell>
        <mxCell id="gZOOGmfuJGryA1Dxe4T--2" value="&lt;h1&gt;&lt;font face=&quot;Comic Sans MS&quot;&gt;START&lt;/font&gt;&lt;/h1&gt;" style="ellipse;whiteSpace=wrap;html=1;fillColor=#6d8764;fontColor=#ffffff;strokeColor=#3A5431;" vertex="1" parent="1">
          <mxGeometry x="290" y="90" width="120" height="80" as="geometry" />
        </mxCell>
        <mxCell id="gZOOGmfuJGryA1Dxe4T--6" value="" style="edgeStyle=orthogonalEdgeStyle;rounded=0;orthogonalLoop=1;jettySize=auto;html=1;" edge="1" parent="1" source="gZOOGmfuJGryA1Dxe4T--3" target="gZOOGmfuJGryA1Dxe4T--5">
          <mxGeometry relative="1" as="geometry" />
        </mxCell>
        <mxCell id="gZOOGmfuJGryA1Dxe4T--3" value="&lt;font style=&quot;font-size: 18px;&quot; face=&quot;Comic Sans MS&quot;&gt;Ask the user for&lt;/font&gt;&lt;div&gt;&lt;font size=&quot;3&quot; face=&quot;Comic Sans MS&quot;&gt;input&lt;/font&gt;&lt;/div&gt;" style="shape=parallelogram;perimeter=parallelogramPerimeter;whiteSpace=wrap;html=1;fixedSize=1;fillColor=#6d8764;strokeColor=#3A5431;fontColor=#ffffff;" vertex="1" parent="1">
          <mxGeometry x="265" y="240" width="170" height="70" as="geometry" />
        </mxCell>
        <mxCell id="gZOOGmfuJGryA1Dxe4T--10" value="" style="edgeStyle=orthogonalEdgeStyle;rounded=0;orthogonalLoop=1;jettySize=auto;html=1;" edge="1" parent="1" source="gZOOGmfuJGryA1Dxe4T--5" target="gZOOGmfuJGryA1Dxe4T--9">
          <mxGeometry relative="1" as="geometry">
            <Array as="points">
              <mxPoint x="521" y="438" />
              <mxPoint x="521" y="439" />
            </Array>
          </mxGeometry>
        </mxCell>
        <mxCell id="gZOOGmfuJGryA1Dxe4T--11" value="YES" style="edgeLabel;html=1;align=center;verticalAlign=middle;resizable=0;points=[];" vertex="1" connectable="0" parent="gZOOGmfuJGryA1Dxe4T--10">
          <mxGeometry x="0.0204" y="1" relative="1" as="geometry">
            <mxPoint as="offset" />
          </mxGeometry>
        </mxCell>
        <mxCell id="gZOOGmfuJGryA1Dxe4T--13" value="" style="edgeStyle=orthogonalEdgeStyle;rounded=0;orthogonalLoop=1;jettySize=auto;html=1;" edge="1" parent="1" source="gZOOGmfuJGryA1Dxe4T--5">
          <mxGeometry relative="1" as="geometry">
            <mxPoint x="387.5" y="612.5" as="targetPoint" />
          </mxGeometry>
        </mxCell>
        <mxCell id="gZOOGmfuJGryA1Dxe4T--17" value="" style="edgeStyle=orthogonalEdgeStyle;rounded=0;orthogonalLoop=1;jettySize=auto;html=1;" edge="1" parent="1" source="gZOOGmfuJGryA1Dxe4T--5" target="gZOOGmfuJGryA1Dxe4T--16">
          <mxGeometry relative="1" as="geometry" />
        </mxCell>
        <mxCell id="gZOOGmfuJGryA1Dxe4T--18" value="NO" style="edgeLabel;html=1;align=center;verticalAlign=middle;resizable=0;points=[];" vertex="1" connectable="0" parent="gZOOGmfuJGryA1Dxe4T--17">
          <mxGeometry x="0.0143" y="-1" relative="1" as="geometry">
            <mxPoint as="offset" />
          </mxGeometry>
        </mxCell>
        <mxCell id="gZOOGmfuJGryA1Dxe4T--5" value="&lt;font style=&quot;font-size: 18px;&quot; face=&quot;Comic Sans MS&quot;&gt;Is input divisible by 2&lt;/font&gt;" style="rhombus;whiteSpace=wrap;html=1;fillColor=#6d8764;strokeColor=#3A5431;fontColor=#ffffff;" vertex="1" parent="1">
          <mxGeometry x="305" y="370" width="165" height="135" as="geometry" />
        </mxCell>
        <mxCell id="gZOOGmfuJGryA1Dxe4T--9" value="&lt;font style=&quot;font-size: 18px;&quot; face=&quot;Comic Sans MS&quot;&gt;The number is even&lt;/font&gt;" style="shape=parallelogram;perimeter=parallelogramPerimeter;whiteSpace=wrap;html=1;fixedSize=1;fillColor=#6d8764;strokeColor=#3A5431;fontColor=#ffffff;" vertex="1" parent="1">
          <mxGeometry x="572.5" y="410" width="207.5" height="57.5" as="geometry" />
        </mxCell>
        <mxCell id="gZOOGmfuJGryA1Dxe4T--14" value="&lt;font style=&quot;font-size: 24px;&quot; face=&quot;Comic Sans MS&quot;&gt;End Program&lt;/font&gt;" style="ellipse;whiteSpace=wrap;html=1;fillColor=#6d8764;fontColor=#ffffff;strokeColor=#3A5431;" vertex="1" parent="1">
          <mxGeometry x="330" y="610" width="120" height="80" as="geometry" />
        </mxCell>
        <mxCell id="gZOOGmfuJGryA1Dxe4T--16" value="&lt;font style=&quot;font-size: 18px;&quot; face=&quot;Comic Sans MS&quot;&gt;The number is odd&lt;/font&gt;" style="shape=parallelogram;perimeter=parallelogramPerimeter;whiteSpace=wrap;html=1;fixedSize=1;fillColor=#6d8764;fontColor=#ffffff;strokeColor=#3A5431;" vertex="1" parent="1">
          <mxGeometry x="30" y="407.5" width="180" height="60" as="geometry" />
        </mxCell>
      </root>
    </mxGraphModel>
  </diagram>
</mxfile>
